<svg xmlns="http://www.w3.org/2000/svg" viewBox="0 0 96 96"><rect width="96" height="96" rx="6.866" fill="#f00000"/><path d="M79.271 35.241s-.623-4.4-2.537-6.335a9.125 9.125 0 0 0-6.394-2.7c-8.93-.646-22.326-.646-22.326-.646h-.028s-13.395 0-22.326.646a9.126 9.126 0 0 0-6.394 2.7c-1.914 1.937-2.536 6.335-2.536 6.335a96.385 96.385 0 0 0-.639 10.328v4.842a96.385 96.385 0 0 0 .639 10.328s.622 4.4 2.536 6.335c2.427 2.541 5.616 2.461 7.036 2.727 5.106.49 21.7.641 21.7.641s13.41-.02 22.34-.665a9.129 9.129 0 0 0 6.394-2.7c1.914-1.937 2.537-6.335 2.537-6.335a96.534 96.534 0 0 0 .638-10.328v-4.845a96.534 96.534 0 0 0-.64-10.328zM41.412 56.278V38.347l17.243 9z" fill="#fff"/></svg>