<?xml version="1.0" encoding="utf-8"?>
<!-- Generator: Adobe Illustrator 18.1.1, SVG Export Plug-In . SVG Version: 6.00 Build 0)  -->
<svg version="1.1" id="Layer_1" xmlns="http://www.w3.org/2000/svg" xmlns:xlink="http://www.w3.org/1999/xlink" x="0px" y="0px"
	 viewBox="496 304.4 896 188" enable-background="new 496 304.4 896 188" xml:space="preserve">
<g>
	<path fill="#FFFFFF" d="M496,310.4h65.2c39.3,0,65.2,20.9,65.2,55.3v0.5c0,37.6-31.4,57-68.5,57h-42.3v61.5H496V310.4z
		 M558.7,405.3c28.9,0,47.8-15.4,47.8-38.3v-0.5c0-24.9-18.7-37.8-46.8-37.8h-44.1v76.7H558.7z"/>
	<path fill="#FFFFFF" d="M646.9,447.4v-0.5c0-27.6,22.4-42.1,55-42.1c16.4,0,27.9,2.2,39.3,5.5v-4c0-22.9-13.9-34.9-38.1-34.9
		c-15.2,0-27.1,3.7-39.1,9.2l-5.7-15.7c14.2-6.5,27.9-11,46.8-11c18.2,0,32.4,5,41.6,14.2c9,9,13.4,21.4,13.4,37.8v78.7h-18.9v-19.2
		c-9,11.5-23.7,21.9-46.3,21.9C670.8,487.4,646.9,473.8,646.9,447.4z M741.5,437.4v-12c-9.5-2.7-21.9-5.5-37.6-5.5
		c-23.9,0-37.6,10.5-37.6,25.9v0.5c0,16.2,14.9,25.6,32.4,25.6C722.3,472,741.5,457.8,741.5,437.4z"/>
	<path fill="#FFFFFF" d="M806.3,450.6v-77.7h-17.9V356h17.9v-38.8h19.2V356h40.8v16.9h-40.8v75.2c0,15.7,8.7,21.4,21.7,21.4
		c6.5,0,12-1.2,18.7-4.5v16.4c-6.7,3.5-13.9,5.5-23.2,5.5C822,486.9,806.3,476.7,806.3,450.6z"/>
	<path fill="#FFFFFF" d="M953.2,471c17.7,0,30.1-7.2,40.6-18.2l12,10.7c-12.9,14.4-28.6,24.2-53,24.2c-35.4,0-64.2-27.1-64.2-67.2
		c0-37.3,26.1-67.2,61.8-67.2c38.1,0,60,30.4,60,68.2c0,1.7,0,3.7-0.2,6.7H907.9C910.6,455.3,930.5,471,953.2,471z M990.8,412.7
		c-2.2-23.4-15.7-43.3-41.1-43.3c-22.2,0-39.1,18.4-41.8,43.3H990.8z"/>
	<path fill="#FFFFFF" d="M1043.8,356h19.2v22.4c8.5-13.9,21.9-25.1,44.1-25.1c31.1,0,49.3,20.9,49.3,51.5v79.9h-19.2v-75.2
		c0-23.9-12.9-38.8-35.6-38.8c-22.2,0-38.6,16.2-38.6,40.3v73.7h-19.2V356z"/>
	<path fill="#FFFFFF" d="M1203.9,450.6v-77.7H1186V356h17.9v-38.8h19.2V356h40.8v16.9h-40.8v75.2c0,15.7,8.7,21.4,21.7,21.4
		c6.5,0,12-1.2,18.7-4.5v16.4c-6.7,3.5-13.9,5.5-23.2,5.5C1219.6,486.9,1203.9,476.7,1203.9,450.6z"/>
	<path fill="#FFFFFF" d="M1287.1,468.3l9.7-13.7c13.9,10.5,29.4,16.4,44.6,16.4c15.4,0,26.6-8,26.6-20.4v-0.5
		c0-12.9-15.2-17.9-32.1-22.7c-20.2-5.7-42.6-12.7-42.6-36.4v-0.5c0-22.2,18.4-36.9,43.8-36.9c15.7,0,33.1,5.5,46.3,14.2l-8.7,14.4
		c-12-7.7-25.6-12.4-38.1-12.4c-15.2,0-24.9,8-24.9,18.7v0.5c0,12.2,15.9,16.9,33.1,22.2c19.9,6,41.3,13.7,41.3,36.9v0.5
		c0,24.4-20.2,38.6-45.8,38.6C1322,487.2,1301.5,480,1287.1,468.3z"/>
</g>
</svg>
